<svg xmlns="http://www.w3.org/2000/svg" viewBox="0 0 750 300.05"><defs><style>.cls-1{fill:#2b6cb0;}.cls-2{fill:#63b3ed;}</style></defs><title>Asset 14</title><g id="Layer_2" data-name="Layer 2"><g id="Background"><path class="cls-1" d="M358.11,116.43c58.35,22.84,123.34,21.74,185.48,13.69,33.29-4.31,73.65-7.81,93.84,19,21.32,28.33,3.9,69.94,14.92,103.64,8.45,25.86,34,43.62,61.06,47.28h21.3A92.91,92.91,0,0,0,750,296.78V0H245.79C260.23,53.21,306,96,358.11,116.43Z"/><path class="cls-1" d="M187.88,151.22c-38.25-32-89.95-42.49-139.67-46.41q-24.06-1.91-48.21-2V300.05H248.85a233.75,233.75,0,0,0-2.72-40.23C239.59,218.36,220.08,178.15,187.88,151.22Z"/><path class="cls-2" d="M652.35,252.77c-11-33.7,6.4-75.31-14.92-103.64-20.19-26.82-60.55-23.32-93.84-19-62.14,8-127.13,9.15-185.48-13.69C306,96,260.23,53.21,245.79,0H0V102.77q24.14.15,48.21,2c49.72,3.92,101.42,14.41,139.67,46.41,32.2,26.93,51.71,67.14,58.25,108.6a233.75,233.75,0,0,1,2.72,40.23H713.41C686.34,296.39,660.8,278.63,652.35,252.77Z"/></g></g></svg>