<svg xmlns="http://www.w3.org/2000/svg" viewBox="0 0 20 16.09"><defs><style>.cls-1{fill:#2b6daf;}.cls-2{fill:#888;}</style></defs><title>fav-chart</title><g id="Layer_2" data-name="Layer 2"><g id="Layer_1-2" data-name="Layer 1"><path class="cls-1" d="M0,2V1.53H0A1.24,1.24,0,0,1,.18,1,1.23,1.23,0,0,1,.76.45,6.47,6.47,0,0,1,1.81.1,1.84,1.84,0,0,1,2.68,0a1.25,1.25,0,0,1,.81.55,1.81,1.81,0,0,1,.2.5c.08.29.18.59.26.88s.25.85.37,1.27.21.7.31,1,.25.86.38,1.28.23.77.34,1.16.24.79.35,1.18.17.58.25.87l.15.49A.9.9,0,0,0,6.18,9l.48-1.44.75-2.27a8.46,8.46,0,0,1,.28-.8,2.59,2.59,0,0,1,.78-1A2.73,2.73,0,0,1,10.11,3a1.84,1.84,0,0,1,.41,0,2.43,2.43,0,0,1,.6.17A2.65,2.65,0,0,1,12,3.8a2.25,2.25,0,0,1,.37.54c.21.48.38,1,.55,1.46s.37,1.1.55,1.65c.09.31.19.62.28.93s.18.59.27.88a1.4,1.4,0,0,0,.31.69h0l.26.27h0a1.83,1.83,0,0,0,.49.28,3,3,0,0,0,1.55.19,1.12,1.12,0,0,0,.74-.35s0-.08.09-.1-.06.19-.08.29c-.13.4-.26.81-.38,1.21l-.54,1.66c-.08.28-.18.55-.26.83a2,2,0,0,1-.66,1.05,2.32,2.32,0,0,1-1.34.5,2.42,2.42,0,0,1-.6,0,2.06,2.06,0,0,1-.63-.18,2.17,2.17,0,0,1-.73-.55,3,3,0,0,1-.49-.73,3.87,3.87,0,0,1-.26-.67c-.16-.5-.33-1-.49-1.51s-.37-1.11-.56-1.66c-.13-.39-.26-.77-.39-1.18l-.1.26c-.24.73-.49,1.46-.73,2.18l-.6,1.79c-.1.32-.2.64-.33,1a2.81,2.81,0,0,1-.94,1.19,2,2,0,0,1-.91.38c-.07,0-.15,0-.21,0H6s0,0,0,0a1.86,1.86,0,0,1-.66-.14,1.9,1.9,0,0,1-1.12-1A8,8,0,0,1,3.78,14c-.17-.51-.35-1-.51-1.52s-.41-1.24-.61-1.87-.31-1-.47-1.48-.31-1-.47-1.5L1.3,6.3C1.14,5.77,1,5.23.8,4.7S.47,3.59.3,3L.06,2.26C0,2.16,0,2.05,0,2Z"/><path class="cls-2" d="M14,9.26a2.07,2.07,0,0,1,.14-.42c.17-.51.35-1,.53-1.55S15,6.41,15.17,6a1.53,1.53,0,0,1,.89-.92A1.42,1.42,0,0,1,16.48,5a2.61,2.61,0,0,1,.4,0,2.12,2.12,0,0,1,1.26.44,1.36,1.36,0,0,1,.46.83,2.28,2.28,0,0,1-.12,1.21c-.2.6-.38,1.2-.58,1.79a8.63,8.63,0,0,1-.37,1s0,.06-.05.07-.06.07-.09.1a1.12,1.12,0,0,1-.74.35,3,3,0,0,1-1.55-.19,1.83,1.83,0,0,1-.49-.28h0L14.33,10h0A1.4,1.4,0,0,1,14,9.26Z"/><path class="cls-2" d="M20,1.93a1.82,1.82,0,0,1-1.93,1.84A1.84,1.84,0,0,1,18.18.1,1.82,1.82,0,0,1,20,1.93Z"/></g></g></svg>