<svg xmlns="http://www.w3.org/2000/svg" viewBox="0 0 1995.78 647.1"><defs><style>.cls-1{fill:#888;}.cls-2{fill:#2b6daf;}</style></defs><title>Wichart-logo</title><g id="Layer_2" data-name="Layer 2"><g id="Layer_1-2" data-name="Layer 1"><path class="cls-1" d="M845.83,608.6q-36.51-21.63-56.48-62t-20-94.41q0-53.58,20-93.91t56.48-62q36.49-21.63,85.17-21.64,58.31,0,102.39,32.95,7.81,5.9,11.25,12.78t3.45,17.7q0,15.25-8,25.82t-19.51,10.57a33.13,33.13,0,0,1-12.4-2.21,73.17,73.17,0,0,1-12.86-7.13q-16.06-10.32-30.3-14.75A98.46,98.46,0,0,0,935.59,346q-40.87,0-60.84,26.31t-20,79.9q0,54.11,20,80.4t60.84,26.31a77.22,77.22,0,0,0,26.63-4.68,359.44,359.44,0,0,0,33.06-14.5q9.65-5.4,14.24-7.38a28.05,28.05,0,0,1,11-2q11.48,0,19.51,10.57t8,25.81q0,10.34-3.45,17.46a36.38,36.38,0,0,1-11.25,13q-44.07,33-102.39,32.94Q882.33,630.23,845.83,608.6Z"/><path class="cls-1" d="M1296,403.8q19.29,25.82,19.28,78.43V588.44q0,18.69-11,29.5t-29.85,10.82q-18.83,0-29.84-10.82t-11-29.5V480.26q0-35.4-28.47-35.4-18.37,0-29.16,12.54t-10.79,33.68v97.36q0,18.69-11,29.5t-29.85,10.82q-18.83,0-29.84-10.82t-11-29.5V316q0-17.2,11.48-28.28t30.3-11.06q17.91,0,28.93,10.33t11,27.53V412.9a80.73,80.73,0,0,1,30.77-26.07q18.35-8.85,41.32-8.85Q1276.74,378,1296,403.8Z"/><path class="cls-1" d="M1543.75,404.78q25,26.81,25,81.38V588.93q0,18.69-10.33,29.26t-28.7,10.57q-16.08,0-26.4-9.83t-11.25-26.56a53.74,53.74,0,0,1-21.58,27.54q-15.15,9.83-36.27,9.83-23.43,0-42.25-10.08a75.24,75.24,0,0,1-29.61-28q-10.8-17.94-10.79-40.56,0-26.05,12.62-41.55t40.18-22.37q27.55-6.88,74.38-6.89h12.4v-5.9q0-17.21-7.34-24.83t-24.8-7.62q-18.83,0-55.1,13.77-10.56,3.93-17.9,3.93a22.09,22.09,0,0,1-18.37-8.85q-6.89-8.85-6.89-23.11,0-10.81,4.13-17.7t13.32-12.3q16.07-8.85,40.4-14.26a220.17,220.17,0,0,1,47.76-5.41Q1518.72,378,1543.75,404.78Zm-63.14,153.91q10.56-12.54,10.56-32.21v-5.9h-7.34q-29.4,0-41.79,5.66t-12.4,18.93q0,11.31,6.66,18.68t17.22,7.38A33.82,33.82,0,0,0,1480.61,558.69Z"/><path class="cls-1" d="M1782.73,386.59q9.18,9.11,9.19,26.8,0,19.67-8.5,28.52t-30.53,11.31l-13.78,1.47q-23,3-32.83,15.49t-9.87,34.18v84.08q0,20.16-11.71,30.24t-29.15,10.08q-17.46,0-29.16-10.08t-11.71-30.24V418.3q0-18.68,11.71-29T1654.63,379q17,0,27.32,9.83t10.33,27.54v9.34q7.34-21.63,24.1-33.44t35.13-12.78l6.43-.49Q1773.54,377.49,1782.73,386.59Z"/><path class="cls-1" d="M1995.78,595.82q0,17.2-12.4,25.56T1948,628.27l-12.86-1q-41.33-3.42-62.68-26.79t-21.35-65.16v-87h-13.31q-36.75,0-36.74-32.45,0-32,36.74-32h13.31v-32q0-18.68,11-29.75T1892,311.11q18.83,0,29.84,11.06t11,29.75v32h25.26q36.72,0,36.73,32,0,32.44-36.73,32.45h-25.26v94.41a23.85,23.85,0,0,0,5.28,15.73,18.24,18.24,0,0,0,13.55,6.89l13.31,1Q1995.78,568.29,1995.78,595.82Z"/><path class="cls-2" d="M0,78.4V61.51c.18-.12.51-.24.53-.38A51.53,51.53,0,0,1,7.09,41c5.52-10,13.18-18.1,23.54-22.77a247.72,247.72,0,0,1,42-14.09C84.25,1.19,96-1.57,108,1.05c13.73,3,24.5,10.59,32.38,22.33,4.12,6.14,5.89,13.12,7.94,20.05C151.82,55.29,155.5,67.1,159,79c5,17,9.85,34.11,14.87,51.14,4.12,13.95,8.47,27.83,12.58,41.79,5,17.14,9.87,34.35,14.92,51.48,4.56,15.49,9.34,30.92,13.95,46.4q7.11,23.87,14.07,47.79c3.37,11.54,6.62,23.13,10,34.67,1.89,6.47,3.92,12.89,6,19.83,1.81-3.47,2.26-6.78,3.3-9.9q9.65-29,19.25-58.11c10-30.37,20-60.77,30.08-91.12,3.58-10.76,6.41-21.84,11.18-32.13a104.51,104.51,0,0,1,31.58-39c19.46-15,41.53-22.45,65.9-23.23,5.51-.18,11.09.63,16.59,1.36a93,93,0,0,1,24.06,6.9c13.75,5.81,25,15,34.84,25.94a87.7,87.7,0,0,1,14.86,21.94c8.7,19,15.57,38.69,22.37,58.41q11.43,33.17,21.84,66.66c3.82,12.37,7.79,24.69,11.4,37.12,3.46,11.94,7.35,23.75,11.05,35.61,1.07,10.49,6,19.28,12.13,27.53l.56.58,10.68,10.67.57.57a72.33,72.33,0,0,0,19.78,11.17c20.14,7.86,41,11.12,62.5,7.81,11.1-1.7,21.7-4.94,29.45-14,1.19-1.39,1.86-3.32,3.75-4.08-1.13,3.84-2.21,7.69-3.39,11.51-5.07,16.3-10.09,32.62-15.26,48.89-7.07,22.27-14.28,44.5-21.42,66.76-3.54,11-7.47,21.93-10.52,33.09-4.64,16.92-13.39,31.2-26.7,42.42-15.4,13-34,18.39-53.65,20.18a102.68,102.68,0,0,1-24.13-.45,88.55,88.55,0,0,1-25.38-7.2,93.6,93.6,0,0,1-29.42-22,130,130,0,0,1-19.89-29.37A178.71,178.71,0,0,1,463,549.68c-6.36-20.34-13.18-40.54-19.89-60.78q-11.07-33.48-22.28-66.9c-5.21-15.6-10.45-31.19-15.87-47.36-1.41,3.87-2.69,7.16-3.82,10.51Q386.38,429,371.64,472.82c-8,23.91-15.9,47.87-24,71.77-4.32,12.81-8.28,25.79-13.47,38.25a114.44,114.44,0,0,1-37.63,48c-10.84,8.13-23.17,12.86-36.62,15-2.89.45-6-.36-8.69,1.26h-12c-.24-.72-.85-.69-1.42-.69-9.34-.06-18.17-2.5-26.87-5.61-20.15-7.21-35.31-20.22-44.8-39.38-6-12-9.89-24.9-14.22-37.59-6.91-20.28-14.06-40.48-20.48-60.93-7.89-25.15-16.35-50.11-24.44-75.19-6.41-19.84-12.65-39.73-18.91-59.62q-9.5-30.15-18.89-60.34-8.44-27.06-16.85-54.13Q42.37,221.3,32.36,189,22.09,155.64,12,122.28c-3.17-10.4-6.42-20.78-9.46-31.22C1.29,86.94,1.53,82.49,0,78.4Z"/><path class="cls-1" d="M563.72,372.56c.7-5.93,3.44-11.22,5.33-16.78,7.09-20.85,14.15-41.73,21.54-62.48,6.3-17.71,12.7-35.39,19.66-52.85,6.76-17,18.07-30,35.64-36.71,5.45-2.09,11.19-2.82,16.89-3.5a117.64,117.64,0,0,1,16.05-.81c18.93.34,35.83,6.6,50.81,17.86,10.93,8.23,15.8,20.27,18.47,33.17,3.46,16.69.73,32.75-4.64,48.82-8,24-15.18,48.18-23.46,72-4.49,13-8.84,26-14.74,38.43-.54,1.13-.83,2.45-2.13,3.06-1.89.76-2.56,2.69-3.75,4.08-7.75,9.06-18.35,12.3-29.45,14-21.52,3.31-42.36.05-62.5-7.81a72.33,72.33,0,0,1-19.78-11.17l-.57-.57-10.68-10.67-.56-.58C569.71,391.84,564.79,383.05,563.72,372.56Z"/><path class="cls-1" d="M804.48,77.83c1.56,39.5-33.16,76.11-77.53,73.88-36-1.8-72.24-32.48-69.61-78.71A73.6,73.6,0,0,1,731.42,3.89C771.6,3.87,805.75,37.51,804.48,77.83Z"/></g></g></svg>